<svg width="194" height="36" viewBox="0 0 194 36" fill="none" xmlns="http://www.w3.org/2000/svg">
    <g clip-path="url(#clip0_2018_1052)">
        <path d="M191.353 17.85C190.101 16.078 188.884 14.2785 187.599 12.5315C187.088 11.8367 187.146 11.3094 187.67 10.6495C188.626 9.43738 189.511 8.17023 190.402 6.90808C191.184 5.80089 191.983 4.73619 193.469 4.50625C193.711 4.46876 194.002 4.37629 193.944 4.04638C193.904 3.81145 193.656 3.75396 193.443 3.75396C191.718 3.74896 189.99 3.74896 188.264 3.75896C188.049 3.75896 187.831 3.84144 187.799 4.08887C187.766 4.3513 187.996 4.42877 188.191 4.50125C189.2 4.87115 189.026 5.47348 188.542 6.15829C187.819 7.18051 187.1 8.20522 186.397 9.24244C186.068 9.7273 185.731 9.88976 185.337 9.33491C184.512 8.18023 183.69 7.02305 182.883 5.85838C182.538 5.36351 182.594 4.93113 183.166 4.60872C183.421 4.46376 183.958 4.48876 183.758 3.99639C183.609 3.629 183.173 3.73647 182.85 3.73647C180.449 3.72647 178.047 3.72897 175.646 3.72897C174.508 3.72897 173.372 3.73147 172.233 3.74396C171.983 3.74646 171.694 3.75896 171.593 4.03638C171.507 4.27132 171.694 4.41628 171.892 4.51125C172.777 4.92863 172.562 5.52097 172.175 6.15579C171.214 7.72036 170.242 9.27743 169.311 10.857C168.863 11.6193 168.527 11.7667 168.043 10.8795C167.143 9.23494 166.199 7.61289 165.25 5.99334C164.858 5.32602 164.855 4.82116 165.675 4.51625C165.91 4.42877 166.186 4.3413 166.075 4.00639C165.996 3.77396 165.754 3.74896 165.546 3.74896C163.735 3.74146 161.923 3.73896 160.111 3.74396C159.861 3.74396 159.537 3.76646 159.502 4.06138C159.451 4.45877 159.836 4.49376 160.109 4.54624C161.328 4.77618 162.077 5.55346 162.705 6.55068C163.965 8.56512 165.273 10.5546 166.576 12.544C166.93 13.0864 167.132 13.6487 167.125 14.2985C167.11 15.4632 167.112 16.6254 167.125 17.7901C167.132 18.6098 166.943 19.2772 165.999 19.4771C165.705 19.5396 165.387 19.6595 165.488 20.0444C165.559 20.3194 165.847 20.3893 166.103 20.3893C167.618 20.3968 169.134 20.3968 170.652 20.3843C170.905 20.3843 171.188 20.3069 171.244 20.0194C171.322 19.6246 170.988 19.5346 170.702 19.4696C169.83 19.2772 169.599 18.6698 169.604 17.8875C169.612 17.0153 169.66 16.138 169.589 15.2708C169.483 13.9561 169.88 12.8589 170.654 11.7917C171.93 10.0347 173.081 8.19273 174.31 6.40572C176.046 3.87643 178.559 3.83644 180.388 6.32825C181.549 7.91031 182.617 9.55735 183.773 11.1419C184.269 11.8192 184.294 12.3741 183.753 13.0364C182.407 14.6859 181.116 16.3805 179.773 18.035C179.158 18.7923 178.435 19.4221 177.369 19.4896C177.083 19.5071 176.727 19.5496 176.706 19.927C176.686 20.3219 177.046 20.3843 177.331 20.3868C178.973 20.4043 180.616 20.4018 182.26 20.3918C182.516 20.3918 182.799 20.3219 182.877 20.0469C182.984 19.667 182.66 19.5596 182.392 19.4396C181.691 19.1272 181.739 18.6273 182.106 18.1175C183.034 16.8303 183.991 15.5657 184.934 14.291C185.258 13.8562 185.602 13.7962 185.939 14.266C186.91 15.6232 187.885 16.9803 188.836 18.3499C189.122 18.7598 189.046 19.1322 188.568 19.3846C188.262 19.5446 187.677 19.5346 187.862 20.0594C187.968 20.3569 188.039 20.3943 188.368 20.3918C188.525 20.3918 188.932 20.3918 189.071 20.3893C189.982 20.3843 191.04 20.3893 191.93 20.3918C192.904 20.3918 193.663 20.3968 193.777 20.3918C193.944 20.3843 194.02 20.1944 194.007 19.942C193.997 19.7195 193.944 19.4921 193.772 19.4496C192.411 19.1072 192.09 18.8848 191.363 17.855L191.353 17.85Z" fill="white"/>
        <path d="M104.294 19.4996C103.244 19.2871 102.809 18.4774 102.417 17.6351C101.294 15.2158 100.178 12.7939 99.0621 10.3721C98.1032 8.2902 97.1569 6.20328 96.1955 4.12386C96.0614 3.83144 95.9501 3.46904 95.5402 3.44155C95.2264 3.42155 95.1303 3.68148 95.0392 3.91891C93.506 7.9328 91.4414 11.7092 89.6753 15.6182C89.2806 16.4904 88.891 17.3727 88.4052 18.1974C87.5855 19.5896 86.4671 19.8145 85.1186 18.9023C84.7416 18.6473 84.395 18.3224 84.104 17.975C83.0338 16.6929 82.0318 15.3507 80.9236 14.0986C80.2 13.2813 80.1494 12.8614 81.2576 12.3041C82.9983 11.4293 83.8434 9.53735 83.5752 7.69037C83.3247 5.95335 82.0116 4.50375 80.1696 4.07637C77.3005 3.41155 74.3757 3.82144 71.4761 3.75396C71.2712 3.74896 71.0232 3.78145 70.9499 4.01639C70.8436 4.35879 71.1346 4.44627 71.3699 4.50375C72.2757 4.72119 72.5287 5.33102 72.5236 6.18078C72.5059 10.1322 72.5135 14.0836 72.516 18.0325C72.516 18.7648 72.3516 19.3546 71.4787 19.4796C71.1928 19.5196 70.8411 19.5846 70.8765 19.977C70.9119 20.3493 71.2611 20.3943 71.552 20.3968C73.0271 20.4093 74.5022 20.4093 75.9772 20.3968C76.2657 20.3943 76.6047 20.3444 76.6452 19.967C76.6781 19.652 76.4074 19.5446 76.1594 19.4946C75.1347 19.2946 74.988 18.5673 74.993 17.7101C75.0057 15.8806 74.9955 14.0511 74.9955 12.2216C74.9955 10.807 74.9955 9.39239 74.9955 7.98029C74.9955 6.05415 75.9604 5.13358 77.89 5.21855C79.9318 5.30853 81.0729 6.41822 81.0881 8.32019C81.1033 10.3071 79.8534 11.6143 77.8394 11.7067C77.3334 11.7292 76.8274 11.7067 76.3213 11.7367C76.0076 11.7567 75.5648 11.6543 75.499 12.1016C75.4434 12.474 75.8533 12.524 76.1088 12.624C77.0905 13.0114 77.7837 13.7237 78.3783 14.5485C78.9653 15.3607 79.527 16.1905 80.1292 16.9953C81.0577 18.2374 81.9787 19.5246 83.5904 19.9645C86.0674 20.6393 88.6076 20.4143 91.1327 20.3893C91.3832 20.3868 91.6488 20.3094 91.7247 20.0194C91.7905 19.7695 91.6109 19.6221 91.4135 19.5446C90.4622 19.1647 90.6747 18.4674 90.9025 17.7701C91.5131 15.8906 92.8338 14.9517 94.8646 14.9533C95.1607 14.9533 95.4541 14.9483 95.7502 14.9533C99.133 15.0108 98.3081 14.466 99.8034 17.8425C100.092 18.4924 100.211 19.1472 99.3252 19.4996C99.0773 19.5971 98.8673 19.7645 98.9584 20.0619C99.0242 20.2769 99.2392 20.3818 99.4568 20.3843C101.058 20.3918 102.657 20.3918 104.259 20.3768C104.469 20.3768 104.682 20.2594 104.727 20.0269C104.79 19.7095 104.552 19.5646 104.299 19.5146L104.294 19.4996ZM97.0203 13.6737C96.4738 13.6712 95.9273 13.6737 95.3808 13.6737C92.2282 13.7087 92.585 13.7162 93.7008 11.1744C94.136 10.1847 94.5484 9.18745 94.9734 8.19523C95.0544 8.00528 95.1278 7.76784 95.3681 7.75785C95.611 7.74785 95.6996 7.97529 95.778 8.16773C96.4181 9.70231 97.0507 11.2369 97.6984 12.769C97.9919 13.4638 97.668 13.6787 97.0203 13.6762V13.6737Z" fill="white"/>
        <path d="M50.0735 12.3366C51.7459 11.5493 52.6593 9.56984 52.3911 7.72285C52.1406 5.98584 50.8275 4.53624 48.9856 4.10886C46.1164 3.44404 43.1916 3.85393 40.2921 3.78645C40.0871 3.78145 39.8392 3.81394 39.7658 4.04888C39.6595 4.39128 39.9505 4.47876 40.1858 4.53624C41.0916 4.75368 41.3446 5.36351 41.3395 6.21327C41.3218 10.1647 41.3294 14.1161 41.3319 18.065C41.3319 18.7973 41.1675 19.3871 40.2946 19.5121C40.0087 19.5521 39.657 19.6171 39.6924 20.0094C39.7278 20.3818 40.077 20.4268 40.368 20.4293C41.843 20.4418 43.3181 20.4418 44.7932 20.4293C45.0816 20.4268 45.4206 20.3768 45.4611 19.9994C45.494 19.6845 45.2233 19.5771 44.9753 19.5271C43.9506 19.3271 43.8039 18.5998 43.8089 17.7426C43.8216 15.9131 43.8115 14.0836 43.8115 12.2541C43.8115 10.8395 43.8115 9.42488 43.8115 8.01277C43.8115 6.08664 44.7763 5.16606 46.7059 5.25104C48.7477 5.34102 49.8888 6.45071 49.904 8.35268C49.9192 10.3396 48.6693 11.6468 46.6553 11.7392C46.1493 11.7617 45.6433 11.7392 45.1372 11.7692C44.8235 11.7892 44.3807 11.6868 44.315 12.1341C44.2593 12.5065 44.6616 12.574 44.9247 12.6565C45.7318 12.9114 48.3986 13.1264 50.071 12.3391L50.0735 12.3366Z" fill="white"/>
        <path d="M116.477 11.7192C116.123 11.5118 115.359 11.5043 116.047 10.727C118.582 7.86032 117.659 4.94113 113.924 4.02888C111.44 3.42155 108.894 3.80644 106.374 3.75146C106.162 3.74646 105.919 3.80395 105.873 4.04138C105.81 4.36629 106.091 4.45626 106.334 4.51375C107.467 4.78617 107.69 5.58345 107.67 6.60067C107.634 8.42766 107.66 10.2572 107.657 12.0841C107.657 13.9961 107.649 15.9056 107.657 17.8176C107.66 18.6448 107.452 19.2996 106.496 19.4696C106.215 19.5196 105.843 19.5621 105.871 19.947C105.904 20.3993 106.326 20.3918 106.648 20.3968C109.426 20.4293 112.214 20.5668 114.964 20.0944C116.31 19.8645 117.542 19.2622 118.319 18.065C119.797 15.7881 119.027 13.2113 116.475 11.7192H116.477ZM116.502 15.8756C116.406 17.4926 115.318 18.7148 113.681 18.8998C112.765 19.0022 111.829 18.9397 110.903 18.9472C110.207 18.9522 109.932 18.5798 109.932 17.9275C109.937 14.0211 109.932 10.1122 109.937 6.20578C109.937 5.82338 109.987 5.36601 110.435 5.30103C111.693 5.11858 112.996 4.97362 114.071 5.83588C115.022 6.60067 115.128 7.68787 114.888 8.80256C114.62 10.0372 113.717 10.702 112.105 10.942C111.546 11.0244 110.916 10.897 110.392 11.4893C111.083 12.0716 111.832 11.9017 112.525 11.9742C115.215 12.2541 116.636 13.6437 116.502 15.8756Z" fill="white"/>
        <path d="M69.1785 19.5646C67.3467 19.1772 67.1038 17.5201 66.489 16.2155C64.6445 12.3016 62.8759 8.35268 61.0644 4.42127C60.8974 4.05887 60.7582 3.55901 60.2345 3.6065C59.7867 3.64898 59.7563 4.13635 59.6045 4.46376C57.6285 8.68509 55.6625 12.9089 53.689 17.1302C53.1931 18.1924 52.7327 19.2896 51.3563 19.5246C51.1463 19.5596 50.959 19.702 50.9767 19.9495C50.9995 20.2644 51.2627 20.3643 51.5131 20.3668C52.9857 20.3818 54.4557 20.3768 55.9282 20.3668C56.1407 20.3668 56.3431 20.2519 56.4064 20.0269C56.4747 19.787 56.328 19.6145 56.123 19.5346C55.0958 19.1347 55.3159 18.4449 55.6423 17.6976C57.1098 14.3485 56.3887 15.0258 59.7791 14.9408C59.8626 14.9408 59.9486 14.9408 60.0321 14.9408C64.0499 14.9833 63.005 14.5285 64.4623 17.6376C64.7963 18.3474 65.0367 19.0222 64.0702 19.5396C63.4832 19.852 63.7084 20.3244 64.2549 20.3468C65.8058 20.4093 67.3644 20.3643 68.9179 20.3368C69.1608 20.3319 69.4492 20.2269 69.4517 19.917C69.4517 19.7945 69.2949 19.5871 69.1785 19.5621V19.5646ZM61.8361 13.6512C60.6646 13.6737 59.4906 13.6662 58.3166 13.6462C57.9548 13.6412 57.6588 13.4888 57.7094 12.9264C57.803 12.684 57.927 12.3341 58.0712 11.9917C58.6101 10.7345 59.1491 9.47986 59.6981 8.22771C59.898 7.77284 60.1788 7.40794 60.4926 8.12774C61.1554 9.64732 61.7728 11.1844 62.4003 12.7165C62.6204 13.2563 62.4686 13.6387 61.8361 13.6512Z" fill="white"/>
        <path d="M133.533 16.0955C133.14 15.8706 132.915 16.258 132.776 16.5529C131.804 18.6023 130.064 19.0447 127.956 18.9797C124.454 18.8723 124.864 19.3771 124.872 15.8981C124.88 12.2441 124.386 12.759 128.078 12.7115C128.978 12.699 129.899 12.6365 130.211 13.7762C130.259 13.9511 130.423 14.0511 130.6 14.0011C130.835 13.9336 130.896 13.7112 130.899 13.5013C130.911 12.5865 130.916 11.6718 130.909 10.7595C130.909 10.5146 130.873 10.2097 130.567 10.1672C130.248 10.1222 130.18 10.4296 130.094 10.657C129.864 11.2569 129.376 11.4343 128.786 11.4393C127.86 11.4468 126.931 11.4268 126.005 11.4518C125.211 11.4718 124.847 11.1294 124.859 10.3346C124.88 9.005 124.885 7.67287 124.859 6.34324C124.842 5.46348 125.292 5.17856 126.114 5.19606C127.253 5.22105 128.391 5.21105 129.527 5.19606C130.426 5.18356 131.245 5.26354 131.433 6.36823C131.47 6.58317 131.589 6.78561 131.84 6.74563C132.08 6.70564 132.144 6.4732 132.151 6.26076C132.169 5.59594 132.154 4.93113 132.179 4.26631C132.209 3.51152 131.83 3.31158 131.149 3.47903C129.613 3.85393 128.047 3.70897 126.491 3.72646C124.89 3.74396 123.288 3.73146 121.687 3.74646C121.408 3.74896 121.036 3.72147 120.998 4.11885C120.968 4.43127 121.284 4.50875 121.517 4.57123C122.362 4.79867 122.59 5.37601 122.587 6.17578C122.57 10.0847 122.577 13.9936 122.58 17.9025C122.58 18.6223 122.413 19.2247 121.6 19.4446C121.289 19.5296 120.844 19.5721 120.96 20.0344C121.059 20.4268 121.482 20.4068 121.81 20.4093C123.369 20.4193 124.93 20.4143 126.489 20.4143V20.4218C127.205 20.4218 127.921 20.4318 128.639 20.4218C133.08 20.3419 131.769 21.0492 133.479 17.1102C133.497 17.0728 133.515 17.0353 133.527 16.9953C133.608 16.6929 133.915 16.323 133.53 16.103L133.533 16.0955Z" fill="white"/>
        <path d="M148.068 16.158C147.545 15.8531 147.388 16.4579 147.193 16.7853C146.269 18.3249 144.941 18.9647 143.102 18.9647C142.365 18.9647 141.657 18.9672 140.954 18.9672C139.843 18.9672 139.479 18.5798 139.491 17.5101C139.534 13.8537 139.522 10.1947 139.499 6.53568C139.494 5.56345 139.719 4.81116 140.779 4.52874C141.014 4.46626 141.325 4.41627 141.3 4.09136C141.275 3.77145 140.969 3.74396 140.721 3.74146C139.162 3.73146 137.604 3.73146 136.045 3.74146C135.797 3.74146 135.486 3.76895 135.445 4.07137C135.402 4.38878 135.709 4.45626 135.946 4.52624C136.852 4.78617 137.222 5.41849 137.222 6.30575C137.222 10.1722 137.227 14.0386 137.217 17.9025C137.217 18.6098 137.012 19.2197 136.205 19.4371C135.898 19.5196 135.425 19.5046 135.463 19.947C135.506 20.4543 136.007 20.3943 136.364 20.3993C137.922 20.4168 139.481 20.4068 141.04 20.4068V20.4143C141.799 20.4143 142.558 20.4218 143.314 20.4143C147.388 20.3693 146.457 20.9017 147.977 17.1752C148.111 16.8503 148.448 16.3755 148.071 16.1555L148.068 16.158Z" fill="white"/>
        <path d="M161.943 16.153C161.397 15.8481 161.248 16.5679 161.017 16.9178C160.129 18.2824 158.927 18.9622 157.237 18.9622C156.45 18.9622 155.742 18.9672 154.965 18.9672C153.844 18.9672 153.379 18.6598 153.397 17.4876C153.452 13.8362 153.432 10.1797 153.407 6.52819C153.399 5.55346 153.632 4.80616 154.689 4.53124C154.925 4.46876 155.236 4.41627 155.208 4.09386C155.183 3.77395 154.877 3.74646 154.629 3.74646C153.073 3.73646 151.514 3.73646 149.958 3.74646C149.708 3.74646 149.399 3.76645 149.338 4.05637C149.272 4.37628 149.576 4.45626 149.814 4.52124C150.785 4.78617 151.132 5.46348 151.132 6.39322C151.127 10.2122 151.132 14.0311 151.127 17.8525C151.127 18.6173 150.879 19.2297 150.069 19.5121C149.776 19.6146 149.272 19.6395 149.356 20.0619C149.45 20.5318 149.963 20.4093 150.317 20.4118C151.833 20.4293 153.348 20.4193 154.861 20.4193C155.661 20.4193 156.461 20.4268 157.26 20.4193C161.237 20.3793 160.405 20.8592 161.794 17.3802C161.951 16.9853 162.414 16.4229 161.938 16.158L161.943 16.153Z" fill="white"/>
        <path d="M44.7451 30.8068C44.5275 31.829 43.7483 32.5763 42.3592 32.5763C40.6008 32.5763 39.7734 31.3466 39.7734 29.7921C39.7734 28.2375 40.6337 26.9529 42.4149 26.9529C43.8925 26.9529 44.6085 27.8026 44.7451 28.7224H43.5484C43.4269 28.295 43.1309 27.8726 42.3769 27.8726C41.3902 27.8726 41.0107 28.7524 41.0107 29.7521C41.0107 30.6718 41.3396 31.6491 42.4073 31.6491C43.1942 31.6491 43.4345 31.1342 43.5408 30.8093H44.7451V30.8068Z" fill="white"/>
        <path d="M54.3749 32.496V30.559C54.3749 30.504 54.3673 30.449 54.3268 30.3841L52.4141 27.0275H53.7702C54.1953 27.8523 54.7494 28.947 55.0302 29.5418C55.2706 28.9694 55.8727 27.8123 56.2902 27.0275H57.5426L55.6071 30.3666C55.5919 30.4066 55.5666 30.429 55.5666 30.5415V32.4935H54.3698L54.3749 32.496Z" fill="white"/>
        <path d="M65.3608 27.03H67.7796C69.1206 27.03 69.6266 27.7123 69.6266 28.4271C69.6266 29.0469 69.2977 29.4418 68.9207 29.6093C69.2977 29.7517 69.7886 30.1416 69.7886 30.8639C69.7886 31.8012 69.0422 32.4985 67.8682 32.4985H65.3634V27.0325L65.3608 27.03ZM67.643 29.1894C68.2123 29.1894 68.4451 28.9345 68.4451 28.5471C68.4451 28.1597 68.1389 27.9447 67.681 27.9447H66.5323V29.1894H67.6405H67.643ZM66.5348 31.5837H67.6202C68.2705 31.5837 68.5589 31.3138 68.5589 30.8214C68.5589 30.3766 68.2705 30.0991 67.6101 30.0991H66.5348V31.5837Z" fill="white"/>
        <path d="M81.9229 30.1391H79.2714V31.5287H82.1937L82.0494 32.496H78.105V27.03H82.0317V27.9972H79.2688V29.1644H81.9204V30.1391H81.9229Z" fill="white"/>
        <path d="M91.608 30.3066V32.496H90.4365V27.03H92.8705C94.0748 27.03 94.7251 27.6798 94.7251 28.5296C94.7251 29.2594 94.3228 29.6568 93.923 29.8217C94.1963 29.9242 94.6138 30.2016 94.6138 31.1863V31.4563C94.6138 31.8212 94.6138 32.241 94.6947 32.496H93.5536C93.4575 32.2585 93.4423 31.8462 93.4423 31.2663V31.1863C93.4423 30.5915 93.2905 30.3066 92.3974 30.3066H91.6105H91.608ZM91.608 29.3618H92.6124C93.2627 29.3618 93.5207 29.1169 93.5207 28.6645C93.5207 28.2122 93.2247 27.9672 92.6377 27.9672H91.6105V29.3643L91.608 29.3618Z" fill="white"/>
        <path d="M104.039 30.8939C104.168 31.4413 104.56 31.6862 105.203 31.6862C105.845 31.6862 106.118 31.4313 106.118 31.0364C106.118 30.584 105.853 30.3941 104.907 30.1791C103.396 29.8292 103.027 29.2819 103.027 28.5446C103.027 27.5923 103.75 26.95 105.058 26.95C106.528 26.95 107.115 27.7273 107.194 28.5296H105.989C105.926 28.1897 105.741 27.8248 105.025 27.8248C104.535 27.8248 104.246 28.0222 104.246 28.4121C104.246 28.802 104.479 28.952 105.38 29.1494C106.986 29.5293 107.341 30.1166 107.341 30.8939C107.341 31.8861 106.576 32.5759 105.117 32.5759C103.657 32.5759 102.963 31.8936 102.837 30.8939H104.041H104.039Z" fill="white"/>
        <path d="M119.429 30.1391H116.778V31.5287H119.7L119.556 32.496H115.611V27.03H119.538V27.9972H116.775V29.1644H119.427V30.1391H119.429Z" fill="white"/>
        <path d="M132.728 30.8064C132.51 31.8287 131.731 32.5759 130.342 32.5759C128.583 32.5759 127.756 31.3463 127.756 29.7917C127.756 28.2372 128.616 26.9525 130.397 26.9525C131.875 26.9525 132.591 27.8023 132.728 28.722H131.531C131.409 28.2946 131.113 27.8723 130.359 27.8723C129.37 27.8723 128.993 28.752 128.993 29.7517C128.993 30.6715 129.322 31.6487 130.39 31.6487C131.177 31.6487 131.417 31.1338 131.523 30.8089H132.728V30.8064Z" fill="white"/>
        <path d="M142.229 27.03V30.2841C142.229 31.3388 142.775 31.6487 143.377 31.6487C144.06 31.6487 144.485 31.2838 144.485 30.2841V27.03H145.69V30.2266C145.69 32.0986 144.582 32.5759 143.36 32.5759C142.137 32.5759 141.029 32.0761 141.029 30.2516V27.03H142.226H142.229Z" fill="white"/>
        <path d="M155.512 30.3066V32.496H154.34V27.03H156.774C157.979 27.03 158.629 27.6798 158.629 28.5296C158.629 29.2594 158.227 29.6568 157.827 29.8217C158.1 29.9242 158.518 30.2016 158.518 31.1863V31.4563C158.518 31.8212 158.518 32.241 158.599 32.496H157.457C157.361 32.2585 157.346 31.8462 157.346 31.2663V31.1863C157.346 30.5915 157.194 30.3066 156.301 30.3066H155.514H155.512ZM155.512 29.3618H156.516C157.166 29.3618 157.425 29.1169 157.425 28.6645C157.425 28.2122 157.129 27.9672 156.542 27.9672H155.514V29.3643L155.512 29.3618Z" fill="white"/>
        <path d="M168.281 27.03V32.496H167.084V27.03H168.281Z" fill="white"/>
        <path d="M178.176 27.9972H176.489V27.03H181.051V27.9972H179.373V32.496H178.176V27.9972Z" fill="white"/>
        <path d="M190.827 32.496V30.559C190.827 30.504 190.819 30.449 190.779 30.3841L188.869 27.0275H190.225C190.65 27.8523 191.204 28.947 191.485 29.5418C191.725 28.9694 192.327 27.8123 192.745 27.0275H193.997L192.062 30.3666C192.046 30.4066 192.021 30.429 192.021 30.5415V32.4935H190.824L190.827 32.496Z" fill="white"/>
        <path d="M29.964 26.3002C28.7141 24.2608 28.3852 22.0039 27.9525 19.782C27.4819 17.3627 26.7355 15.0408 25.6729 12.8164C23.0036 7.22549 18.3836 4.61622 12.1241 5.12607C10.0038 5.29853 7.95188 5.71091 6.09224 6.76562C5.40404 7.15551 5.26236 6.90558 5.10296 6.28825C4.69055 4.6812 4.23765 3.08164 3.76199 1.49208C3.61271 0.989723 3.66079 0.714799 4.24018 0.624824C9.58381 -0.227439 14.8945 -0.54735 19.9371 1.92696C24.251 4.04637 26.4345 7.78783 27.6818 12.1866C28.6736 15.6831 28.9317 19.2971 29.4504 22.8686C29.6174 24.0133 29.7919 25.1555 29.964 26.2977V26.3002Z" fill="white"/>
        <path d="M8.92845 32.8134C8.92845 32.7309 8.93351 32.6459 8.92845 32.5635C8.81206 30.9414 8.74122 29.6018 10.95 28.967C12.8274 28.4271 13.675 26.4826 14.2721 24.6582C14.7528 23.1886 15.0514 21.6765 15.0261 20.1294C15.0109 19.2821 15.2563 18.9672 16.1671 18.9772C18.2596 18.9997 18.252 18.9547 18.3532 21.0716C18.6644 27.5798 16.1267 32.5285 10.1809 35.6051C8.95881 36.2374 8.93857 36.2099 8.93351 34.8103C8.93351 34.1455 8.93351 33.4807 8.93351 32.8159L8.92845 32.8134Z" fill="white"/>
        <path d="M1.62686 29.7217C1.72806 28.6495 1.8318 27.5748 1.92794 26.5026C2.0165 25.5029 1.59903 24.7531 0.609748 24.5182C-0.164471 24.3332 -0.0531453 23.9783 0.151795 23.456C0.619868 22.2588 1.10312 21.0642 1.50541 19.847C1.73565 19.1472 2.12782 19.0172 2.82108 19.0747C5.92807 19.3296 9.04266 19.2322 12.1522 19.1122C13.0706 19.0772 13.3641 19.2846 13.2553 20.1794C13.0403 21.9614 12.7038 23.7034 11.8106 25.2955C11.0971 26.5701 10.1407 27.6723 8.72386 28.0947C7.00591 28.6096 5.48783 29.4593 3.94951 30.3116C3.62313 30.4915 3.26638 30.634 2.90963 30.754C1.723 31.1489 1.51553 30.9789 1.62433 29.7242L1.62686 29.7217Z" fill="white"/>
        <path d="M27.1635 32.1686C25.4657 32.0661 24.0514 31.9786 22.6345 31.8986C21.7566 31.8487 21.5921 31.1364 21.3796 30.5315C20.5446 28.1572 20.3296 25.6704 20.1069 23.1911C19.9602 21.579 19.859 19.962 19.816 18.3449C19.7907 17.3902 19.3909 16.8553 18.4952 16.4879C14.1535 14.6984 9.84726 12.8214 5.49292 11.0619C4.37713 10.6121 4.52894 10.2372 5.1893 9.54735C6.91232 7.75285 9.10088 7.07304 11.5121 6.82561C16.7469 6.28576 21.8805 9.0125 23.9932 13.5013C24.8079 15.2308 25.1545 17.0803 25.0584 18.9522C24.904 21.9814 24.8661 25.0106 24.8585 28.0397C24.8534 30.3441 25.0255 30.6615 27.1609 32.1736L27.1635 32.1686Z" fill="white"/>
        <path d="M15.5046 17.4527C11.0212 17.4527 6.53532 17.4452 2.05194 17.4627C1.47001 17.4627 1.3182 17.2327 1.39411 16.7179C1.61423 15.2383 1.98869 13.7987 2.46182 12.3791C2.64399 11.8342 2.95013 11.8367 3.41568 12.0367C7.45376 13.7662 11.4994 15.4807 15.5426 17.1977C15.5299 17.2827 15.5173 17.3677 15.5046 17.4527Z" fill="white"/>
    </g>
    <defs>
        <clipPath id="clip0_2018_1052">
            <rect width="194" height="36" fill="white"/>
        </clipPath>
    </defs>
</svg>
