<svg width="28" height="28" viewBox="0 0 28 28" fill="none" xmlns="http://www.w3.org/2000/svg">
    <path d="M23.0302 21.385C24.6752 19.3667 25.6668 16.8 25.6668 14C25.6668 7.55999 20.4402 2.33333 14.0002 2.33333C7.56016 2.33333 2.3335 7.55999 2.3335 14C2.3335 20.44 7.56016 25.6667 14.0002 25.6667C16.8002 25.6667 19.3668 24.675 21.3852 23.03C21.7002 22.7733 22.0035 22.4933 22.2952 22.2017C22.3302 22.1667 22.3535 22.1317 22.3768 22.1083C22.6102 21.875 22.8318 21.63 23.0302 21.385ZM14.0002 23.3333C8.85516 23.3333 4.66683 19.145 4.66683 14C4.66683 8.85499 8.85516 4.66666 14.0002 4.66666C19.1452 4.66666 23.3335 8.85499 23.3335 14C23.3335 16.1583 22.5985 18.13 21.3618 19.7167L19.6935 18.0483C20.4985 16.905 20.9768 15.5167 20.9768 14.0117C20.9768 10.15 17.8385 7.01166 13.9768 7.01166C10.1152 7.01166 6.97683 10.15 6.97683 14.0117C6.97683 17.8733 10.1152 21.0117 13.9768 21.0117C15.4935 21.0117 16.9052 20.5217 18.0485 19.6933L19.7052 21.35C18.1302 22.5983 16.1585 23.3333 14.0002 23.3333ZM16.2402 14.595C16.4385 13.825 16.2635 12.985 15.6685 12.3783L15.6452 12.355C14.7468 11.4567 13.3118 11.445 12.4018 12.3083C12.3902 12.32 12.3668 12.3317 12.3435 12.355C11.4335 13.265 11.4335 14.7467 12.3435 15.6567L12.3668 15.68C12.9735 16.275 13.8252 16.4617 14.5952 16.2517L16.3568 18.0133C15.6568 18.4333 14.8518 18.69 13.9768 18.69C11.3985 18.69 9.31016 16.6017 9.31016 14.0233C9.31016 11.445 11.3985 9.35666 13.9768 9.35666C16.5552 9.35666 18.6435 11.445 18.6435 14.0233C18.6435 14.875 18.3985 15.6683 17.9902 16.3567L16.2402 14.595Z" fill="white"/>
</svg>