<svg width="401" height="197" viewBox="0 0 401 197" fill="none" xmlns="http://www.w3.org/2000/svg">
    <g clip-path="url(#clip0_0_1)">
        <path d="M71.4502 119.03C57.4556 141.013 49.6087 166.293 48.8558 192.783C48.7867 195.134 46.8733 197 44.5248 197H22.3447C19.9064 197 17.9446 194.988 18.0068 192.548C18.8219 159.754 28.6167 128.432 46.1204 101.361C47.4674 99.2806 50.2787 98.7552 52.2888 100.2C57.1379 103.684 65.6341 109.795 70.3381 113.182C72.2101 114.523 72.6936 117.095 71.4571 119.037L71.4502 119.03Z" fill="#F55F5F"/>
        <path d="M189.852 25.3482V47.5797C189.852 49.8886 188.049 51.7827 185.749 51.9071C144.946 54.0985 106.513 74.035 81.0794 105.64C79.6357 107.438 77.0454 107.79 75.1804 106.449C70.4764 103.069 61.9732 96.951 57.131 93.4669C55.121 92.0222 54.7203 89.1879 56.2607 87.2523C87.386 47.9876 134.91 23.3227 185.321 21C187.787 20.8894 189.852 22.8665 189.852 25.3412V25.3482Z" fill="#F79F5F"/>
        <path d="M365.662 197H343.468C341.12 197 339.206 195.127 339.137 192.783C338.377 166.3 330.537 141.013 316.543 119.037C315.306 117.095 315.79 114.53 317.662 113.182C322.366 109.802 330.869 103.691 335.718 100.207C337.728 98.7621 340.539 99.2875 341.886 101.368C359.404 128.446 369.185 159.754 370 192.555C370.062 194.995 368.094 197.007 365.662 197.007V197Z" fill="#AAE5A1"/>
        <path d="M330.876 93.4739C326.034 96.9579 317.531 103.069 312.827 106.449C310.955 107.797 308.371 107.438 306.921 105.64C281.487 74.0281 243.047 54.0916 202.244 51.9003C199.944 51.7758 198.141 49.8817 198.141 47.5728V25.3482C198.141 22.8734 200.2 20.8963 202.672 21.0069C253.083 23.3227 300.628 47.9876 331.746 87.2592C333.28 89.1948 332.879 92.0291 330.876 93.4739Z" fill="#F8D760"/>
    </g>
    <path d="M63.0461 191.082L61.1833 190.977L61.1989 190.709C61.2176 190.395 61.2362 190.084 61.258 189.77C61.2922 189.26 61.7369 188.874 62.2438 188.912H62.2625C62.7694 188.949 63.1488 189.391 63.1177 189.898C63.099 190.202 63.0772 190.51 63.0617 190.818L63.0461 191.082ZM326.019 189.468V189.462C325.985 188.955 326.365 188.517 326.871 188.48H326.89C327.4 188.439 327.845 188.828 327.879 189.338V189.344C327.913 189.854 327.525 190.296 327.014 190.327H326.996C326.489 190.358 326.054 189.975 326.019 189.468ZM63.3353 179.095H63.3167C62.8098 179.017 62.4615 178.544 62.5392 178.037V178.031C62.617 177.524 63.0928 177.179 63.5997 177.26H63.6183C64.119 177.344 64.4611 177.814 64.3834 178.314V178.32C64.3056 178.821 63.8391 179.166 63.3353 179.095ZM324.723 177.891V177.885C324.642 177.384 324.984 176.915 325.484 176.831H325.503C326.01 176.744 326.486 177.089 326.564 177.596V177.602C326.644 178.106 326.296 178.582 325.789 178.659H325.771C325.27 178.737 324.8 178.395 324.723 177.894V177.891ZM65.5464 167.574H65.5278C65.0302 167.449 64.7223 166.949 64.8467 166.451V166.445C64.9711 165.947 65.4749 165.646 65.9725 165.77L65.9911 165.776C66.4825 165.901 66.781 166.398 66.6598 166.893V166.899C66.5354 167.39 66.0409 167.695 65.5464 167.577V167.574ZM322.403 166.476V166.47C322.278 165.978 322.574 165.478 323.065 165.353L323.084 165.347C323.581 165.22 324.085 165.521 324.209 166.016V166.022C324.337 166.516 324.032 167.023 323.535 167.141H323.516C323.021 167.266 322.527 166.964 322.403 166.473V166.476ZM68.7744 156.295L68.7558 156.289C68.2706 156.127 68.0094 155.599 68.1742 155.113V155.107C68.3422 154.622 68.8708 154.367 69.356 154.535L69.3746 154.541C69.8535 154.709 70.1054 155.232 69.9437 155.71V155.717C69.7758 156.196 69.2565 156.454 68.7744 156.292V156.295ZM319.075 155.319C318.907 154.84 319.159 154.317 319.638 154.146L319.657 154.14C320.139 153.969 320.67 154.224 320.838 154.706C321.006 155.191 320.748 155.72 320.263 155.885L320.244 155.891C319.765 156.053 319.243 155.798 319.075 155.319ZM72.9914 145.346L72.9727 145.337C72.5031 145.132 72.2917 144.584 72.5 144.115L72.5062 144.102C72.7146 143.636 73.265 143.424 73.7315 143.639L73.7502 143.648C74.2135 143.857 74.4188 144.401 74.2104 144.864L74.2042 144.877C73.9989 145.34 73.4547 145.548 72.9914 145.346ZM314.774 144.507C314.566 144.043 314.771 143.499 315.231 143.288L315.25 143.278C315.713 143.064 316.267 143.272 316.475 143.738C316.687 144.208 316.475 144.755 316.006 144.964L315.987 144.973C315.524 145.178 314.979 144.973 314.771 144.507H314.774ZM78.1723 134.805L78.1537 134.795C77.7059 134.55 77.541 133.984 77.7898 133.536L77.796 133.527C78.0448 133.079 78.6108 132.92 79.0586 133.172L79.0773 133.181C79.5189 133.43 79.6744 133.99 79.4287 134.435L79.4225 134.444C79.1768 134.885 78.617 135.047 78.1723 134.805ZM309.531 134.114C309.282 133.67 309.438 133.11 309.879 132.858L309.895 132.849C310.34 132.594 310.906 132.752 311.157 133.197C311.406 133.645 311.248 134.214 310.8 134.459L310.781 134.469C310.336 134.714 309.78 134.556 309.531 134.111V134.114ZM84.2676 124.767L84.2521 124.754C83.826 124.471 83.7141 123.89 84.0033 123.467L84.0095 123.458C84.2987 123.035 84.8771 122.926 85.2969 123.218L85.3125 123.231C85.7292 123.52 85.8381 124.089 85.552 124.509L85.5457 124.518C85.2596 124.938 84.6905 125.047 84.2676 124.767ZM303.389 124.219C303.103 123.797 303.209 123.224 303.625 122.935L303.641 122.923C304.061 122.63 304.639 122.736 304.928 123.159H304.932C305.221 123.585 305.109 124.163 304.686 124.45L304.67 124.462C304.251 124.745 303.678 124.636 303.392 124.216L303.389 124.219ZM91.2274 115.31L91.2118 115.298C90.8138 114.978 90.7516 114.393 91.0781 113.995L91.0843 113.989C91.4078 113.591 91.9924 113.535 92.3874 113.861L92.4029 113.874C92.7947 114.197 92.8507 114.776 92.5273 115.167L92.5211 115.174C92.2008 115.565 91.6223 115.628 91.2274 115.307V115.31ZM296.395 114.9V114.894C296.069 114.502 296.125 113.924 296.513 113.6L296.529 113.588C296.921 113.261 297.508 113.317 297.832 113.712V113.718C298.162 114.113 298.102 114.701 297.704 115.021L297.689 115.034C297.294 115.354 296.715 115.295 296.395 114.903V114.9ZM98.9895 106.507L98.974 106.495C98.607 106.14 98.5977 105.549 98.9553 105.186L98.9615 105.179C99.3192 104.812 99.9069 104.809 100.271 105.17L100.286 105.182C100.647 105.54 100.65 106.122 100.296 106.482L100.289 106.488C99.9349 106.852 99.3534 106.862 98.9895 106.507ZM288.611 106.23L288.605 106.224C288.251 105.863 288.254 105.282 288.614 104.924L288.627 104.912C288.991 104.551 289.578 104.554 289.936 104.921L289.942 104.927C290.3 105.294 290.294 105.882 289.924 106.237L289.908 106.249C289.544 106.6 288.963 106.594 288.608 106.233L288.611 106.23ZM107.495 98.4221L107.482 98.4066C107.147 98.021 107.19 97.4333 107.579 97.1006H107.585C107.974 96.7616 108.558 96.8083 108.891 97.2001L108.904 97.2156C109.23 97.6043 109.187 98.1827 108.801 98.5123H108.795C108.409 98.8482 107.831 98.8046 107.498 98.4221H107.495ZM280.093 98.276L280.087 98.2698C279.702 97.9402 279.655 97.3618 279.981 96.9731L279.994 96.9575C280.324 96.5657 280.911 96.5191 281.3 96.8518L281.306 96.858C281.695 97.1907 281.739 97.7785 281.403 98.1641L281.39 98.1796C281.057 98.5621 280.479 98.6056 280.093 98.276ZM116.675 91.1146L116.663 91.099C116.361 90.6854 116.454 90.1039 116.871 89.8054H116.877C117.294 89.5038 117.872 89.6033 118.168 90.02L118.18 90.0355C118.473 90.4491 118.376 91.0244 117.963 91.3167H117.959C117.546 91.6152 116.974 91.5219 116.675 91.1115V91.1146ZM270.904 91.1021L270.895 91.0959C270.481 90.8005 270.385 90.2283 270.674 89.8148L270.686 89.7992C270.979 89.3794 271.56 89.2799 271.977 89.5784L271.986 89.5846C272.403 89.8832 272.499 90.4615 272.198 90.8782L272.185 90.8938C271.887 91.3043 271.314 91.3975 270.901 91.1052L270.904 91.1021ZM126.459 84.6466L126.449 84.631C126.185 84.1926 126.331 83.6204 126.773 83.3623H126.776C127.217 83.1011 127.787 83.2473 128.045 83.6919L128.054 83.7106C128.309 84.149 128.163 84.7119 127.724 84.97H127.721C127.286 85.2312 126.72 85.0881 126.462 84.6528L126.459 84.6466ZM261.117 84.7647L261.108 84.7585C260.669 84.5035 260.52 83.9407 260.775 83.5022L260.785 83.4836C261.04 83.0389 261.609 82.8897 262.05 83.1477L262.06 83.154C262.501 83.4121 262.647 83.9811 262.386 84.4227L262.377 84.4382C262.119 84.8736 261.556 85.0197 261.117 84.7616V84.7647ZM136.774 79.0679L136.765 79.0493C136.541 78.5891 136.737 78.0324 137.197 77.8117C137.66 77.5909 138.214 77.7899 138.431 78.2532L138.441 78.2719C138.655 78.7321 138.459 79.2794 138.002 79.4971C137.545 79.7178 136.995 79.5251 136.774 79.0679ZM250.802 79.3198L250.79 79.3136C250.332 79.0959 250.133 78.5517 250.345 78.0915L250.354 78.0729C250.569 77.6095 251.122 77.4074 251.586 77.6251L251.598 77.6313C252.061 77.849 252.257 78.4056 252.037 78.8658L252.027 78.8845C251.806 79.3416 251.259 79.5344 250.802 79.3198ZM147.537 74.4253L147.531 74.4066C147.35 73.9278 147.593 73.3929 148.072 73.2125C148.551 73.0353 149.086 73.281 149.26 73.7629L149.266 73.7816C149.44 74.2574 149.195 74.786 148.722 74.9633C148.246 75.1405 147.717 74.9011 147.537 74.4253ZM240.042 74.814L240.026 74.8078C239.551 74.6336 239.305 74.1081 239.476 73.6292L239.482 73.6106C239.656 73.1286 240.188 72.8798 240.67 73.0571L240.686 73.0633C241.168 73.2405 241.41 73.7754 241.233 74.2543L241.227 74.2729C241.05 74.7487 240.521 74.9881 240.045 74.814H240.042ZM158.664 70.756L158.658 70.7373C158.518 70.2429 158.81 69.7329 159.302 69.5961H159.308C159.802 69.4592 160.312 69.7516 160.443 70.246L160.449 70.2646C160.58 70.756 160.29 71.2597 159.799 71.3934H159.793C159.305 71.5302 158.798 71.2442 158.661 70.756H158.664ZM228.927 71.2908H228.921C228.43 71.1571 228.141 70.6533 228.268 70.1651L228.274 70.1465C228.405 69.652 228.912 69.3566 229.406 69.4872H229.413C229.907 69.621 230.199 70.134 230.063 70.6254L230.056 70.644C229.923 71.1322 229.416 71.4214 228.927 71.2908ZM170.09 68.0879V68.0693C169.993 67.5655 170.326 67.0804 170.83 66.9902H170.836C171.34 66.8969 171.822 67.2359 171.909 67.7396V67.7583C171.999 68.2589 171.666 68.7347 171.165 68.8249H171.159C170.659 68.9151 170.183 68.5855 170.09 68.0879ZM217.555 68.7658H217.549C217.048 68.6756 216.715 68.203 216.799 67.7023V67.6837C216.886 67.1799 217.368 66.8378 217.872 66.928H217.878C218.382 67.0182 218.718 67.5002 218.628 68.004V68.0226C218.531 68.5201 218.055 68.8529 217.555 68.7658ZM181.708 66.446V66.4274C181.658 65.9174 182.031 65.4665 182.541 65.4199H182.547C183.057 65.3732 183.508 65.7526 183.549 66.2626V66.2812C183.592 66.7881 183.219 67.2328 182.712 67.2763H182.706C182.202 67.3229 181.754 66.9498 181.705 66.446H181.708ZM206.002 67.2545H205.996C205.489 67.211 205.115 66.7663 205.156 66.2626V66.2439C205.199 65.7339 205.647 65.3546 206.157 65.3981H206.163C206.674 65.4416 207.05 65.8956 207.003 66.4056V66.4243C206.953 66.928 206.509 67.3012 206.002 67.2576V67.2545ZM193.426 65.8397V65.821C193.423 65.311 193.836 64.8912 194.349 64.8912H194.359C194.872 64.8912 195.285 65.3079 195.282 65.821V65.8397C195.279 66.3465 194.865 66.757 194.359 66.757H194.352C193.845 66.757 193.432 66.3496 193.429 65.8397H193.426Z" fill="#D9D9D9" fill-opacity="0.25"/>
    <path d="M385.36 188V186.71H387.77V194H386.33V188H385.36ZM388.653 190.26C388.653 189.107 388.86 188.203 389.273 187.55C389.693 186.897 390.386 186.57 391.353 186.57C392.32 186.57 393.01 186.897 393.423 187.55C393.843 188.203 394.053 189.107 394.053 190.26C394.053 191.42 393.843 192.33 393.423 192.99C393.01 193.65 392.32 193.98 391.353 193.98C390.386 193.98 389.693 193.65 389.273 192.99C388.86 192.33 388.653 191.42 388.653 190.26ZM392.673 190.26C392.673 189.767 392.64 189.353 392.573 189.02C392.513 188.68 392.386 188.403 392.193 188.19C392.006 187.977 391.726 187.87 391.353 187.87C390.98 187.87 390.696 187.977 390.503 188.19C390.316 188.403 390.19 188.68 390.123 189.02C390.063 189.353 390.033 189.767 390.033 190.26C390.033 190.767 390.063 191.193 390.123 191.54C390.183 191.88 390.31 192.157 390.503 192.37C390.696 192.577 390.98 192.68 391.353 192.68C391.726 192.68 392.01 192.577 392.203 192.37C392.396 192.157 392.523 191.88 392.583 191.54C392.643 191.193 392.673 190.767 392.673 190.26ZM394.618 190.26C394.618 189.107 394.825 188.203 395.238 187.55C395.658 186.897 396.351 186.57 397.318 186.57C398.285 186.57 398.975 186.897 399.388 187.55C399.808 188.203 400.018 189.107 400.018 190.26C400.018 191.42 399.808 192.33 399.388 192.99C398.975 193.65 398.285 193.98 397.318 193.98C396.351 193.98 395.658 193.65 395.238 192.99C394.825 192.33 394.618 191.42 394.618 190.26ZM398.638 190.26C398.638 189.767 398.605 189.353 398.538 189.02C398.478 188.68 398.351 188.403 398.158 188.19C397.971 187.977 397.691 187.87 397.318 187.87C396.945 187.87 396.661 187.977 396.468 188.19C396.281 188.403 396.155 188.68 396.088 189.02C396.028 189.353 395.998 189.767 395.998 190.26C395.998 190.767 396.028 191.193 396.088 191.54C396.148 191.88 396.275 192.157 396.468 192.37C396.661 192.577 396.945 192.68 397.318 192.68C397.691 192.68 397.975 192.577 398.168 192.37C398.361 192.157 398.488 191.88 398.548 191.54C398.608 191.193 398.638 190.767 398.638 190.26Z" fill="#D9D9D9"/>
    <path d="M348.75 86.14C348.083 85.7933 347.75 85.2567 347.75 84.53C347.75 84.17 347.84 83.8433 348.02 83.55C348.207 83.25 348.483 83.0133 348.85 82.84C349.223 82.66 349.677 82.57 350.21 82.57C350.743 82.57 351.193 82.66 351.56 82.84C351.933 83.0133 352.21 83.25 352.39 83.55C352.577 83.8433 352.67 84.17 352.67 84.53C352.67 84.8967 352.58 85.22 352.4 85.5C352.22 85.7733 351.98 85.9867 351.68 86.14C352.047 86.3 352.333 86.5333 352.54 86.84C352.747 87.1467 352.85 87.51 352.85 87.93C352.85 88.3833 352.733 88.78 352.5 89.12C352.273 89.4533 351.96 89.71 351.56 89.89C351.16 90.07 350.71 90.16 350.21 90.16C349.71 90.16 349.26 90.07 348.86 89.89C348.467 89.71 348.153 89.4533 347.92 89.12C347.693 88.78 347.58 88.3833 347.58 87.93C347.58 87.51 347.683 87.1467 347.89 86.84C348.097 86.5267 348.383 86.2933 348.75 86.14ZM351.31 84.73C351.31 84.4033 351.21 84.15 351.01 83.97C350.817 83.79 350.55 83.7 350.21 83.7C349.877 83.7 349.61 83.79 349.41 83.97C349.217 84.15 349.12 84.4067 349.12 84.74C349.12 85.04 349.22 85.28 349.42 85.46C349.627 85.64 349.89 85.73 350.21 85.73C350.53 85.73 350.793 85.64 351 85.46C351.207 85.2733 351.31 85.03 351.31 84.73ZM350.21 86.75C349.83 86.75 349.52 86.8467 349.28 87.04C349.047 87.2333 348.93 87.51 348.93 87.87C348.93 88.2033 349.043 88.4767 349.27 88.69C349.503 88.8967 349.817 89 350.21 89C350.603 89 350.913 88.8933 351.14 88.68C351.367 88.4667 351.48 88.1967 351.48 87.87C351.48 87.5167 351.363 87.2433 351.13 87.05C350.897 86.85 350.59 86.75 350.21 86.75ZM353.456 86.26C353.456 85.1067 353.662 84.2033 354.076 83.55C354.496 82.8967 355.189 82.57 356.156 82.57C357.122 82.57 357.812 82.8967 358.226 83.55C358.646 84.2033 358.856 85.1067 358.856 86.26C358.856 87.42 358.646 88.33 358.226 88.99C357.812 89.65 357.122 89.98 356.156 89.98C355.189 89.98 354.496 89.65 354.076 88.99C353.662 88.33 353.456 87.42 353.456 86.26ZM357.476 86.26C357.476 85.7667 357.442 85.3533 357.376 85.02C357.316 84.68 357.189 84.4033 356.996 84.19C356.809 83.9767 356.529 83.87 356.156 83.87C355.782 83.87 355.499 83.9767 355.306 84.19C355.119 84.4033 354.992 84.68 354.926 85.02C354.866 85.3533 354.836 85.7667 354.836 86.26C354.836 86.7667 354.866 87.1933 354.926 87.54C354.986 87.88 355.112 88.1567 355.306 88.37C355.499 88.5767 355.782 88.68 356.156 88.68C356.529 88.68 356.812 88.5767 357.006 88.37C357.199 88.1567 357.326 87.88 357.386 87.54C357.446 87.1933 357.476 86.7667 357.476 86.26Z" fill="#D9D9D9"/>
    <path d="M193.43 1.92H190.19V3.63C190.33 3.45667 190.53 3.31667 190.79 3.21C191.05 3.09667 191.327 3.04 191.62 3.04C192.153 3.04 192.59 3.15667 192.93 3.39C193.27 3.62333 193.517 3.92333 193.67 4.29C193.823 4.65 193.9 5.03667 193.9 5.45C193.9 6.21667 193.68 6.83333 193.24 7.3C192.807 7.76667 192.187 8 191.38 8C190.62 8 190.013 7.81 189.56 7.43C189.107 7.05 188.85 6.55333 188.79 5.94H190.15C190.21 6.20667 190.343 6.42 190.55 6.58C190.763 6.74 191.033 6.82 191.36 6.82C191.753 6.82 192.05 6.69667 192.25 6.45C192.45 6.20333 192.55 5.87667 192.55 5.47C192.55 5.05667 192.447 4.74333 192.24 4.53C192.04 4.31 191.743 4.2 191.35 4.2C191.07 4.2 190.837 4.27 190.65 4.41C190.463 4.55 190.33 4.73667 190.25 4.97H188.91V0.69H193.43V1.92ZM194.466 4.26C194.466 3.10667 194.672 2.20333 195.086 1.55C195.506 0.896666 196.199 0.57 197.166 0.57C198.132 0.57 198.822 0.896666 199.236 1.55C199.656 2.20333 199.866 3.10667 199.866 4.26C199.866 5.42 199.656 6.33 199.236 6.99C198.822 7.65 198.132 7.98 197.166 7.98C196.199 7.98 195.506 7.65 195.086 6.99C194.672 6.33 194.466 5.42 194.466 4.26ZM198.486 4.26C198.486 3.76667 198.452 3.35333 198.386 3.02C198.326 2.68 198.199 2.40333 198.006 2.19C197.819 1.97667 197.539 1.87 197.166 1.87C196.792 1.87 196.509 1.97667 196.316 2.19C196.129 2.40333 196.002 2.68 195.936 3.02C195.876 3.35333 195.846 3.76667 195.846 4.26C195.846 4.76667 195.876 5.19333 195.936 5.54C195.996 5.88 196.122 6.15667 196.316 6.37C196.509 6.57667 196.792 6.68 197.166 6.68C197.539 6.68 197.822 6.57667 198.016 6.37C198.209 6.15667 198.336 5.88 198.396 5.54C198.456 5.19333 198.486 4.76667 198.486 4.26Z" fill="#D9D9D9"/>
    <path d="M24.97 91.42C25.61 90.8867 26.12 90.4433 26.5 90.09C26.88 89.73 27.1967 89.3567 27.45 88.97C27.7033 88.5833 27.83 88.2033 27.83 87.83C27.83 87.49 27.75 87.2233 27.59 87.03C27.43 86.8367 27.1833 86.74 26.85 86.74C26.5167 86.74 26.26 86.8533 26.08 87.08C25.9 87.3 25.8067 87.6033 25.8 87.99H24.44C24.4667 87.19 24.7033 86.5833 25.15 86.17C25.6033 85.7567 26.1767 85.55 26.87 85.55C27.63 85.55 28.2133 85.7533 28.62 86.16C29.0267 86.56 29.23 87.09 29.23 87.75C29.23 88.27 29.09 88.7667 28.81 89.24C28.53 89.7133 28.21 90.1267 27.85 90.48C27.49 90.8267 27.02 91.2467 26.44 91.74H29.39V92.9H24.45V91.86L24.97 91.42ZM29.7722 89.26C29.7722 88.1067 29.9789 87.2033 30.3922 86.55C30.8122 85.8967 31.5055 85.57 32.4722 85.57C33.4389 85.57 34.1289 85.8967 34.5422 86.55C34.9622 87.2033 35.1722 88.1067 35.1722 89.26C35.1722 90.42 34.9622 91.33 34.5422 91.99C34.1289 92.65 33.4389 92.98 32.4722 92.98C31.5055 92.98 30.8122 92.65 30.3922 91.99C29.9789 91.33 29.7722 90.42 29.7722 89.26ZM33.7922 89.26C33.7922 88.7667 33.7589 88.3533 33.6922 88.02C33.6322 87.68 33.5055 87.4033 33.3122 87.19C33.1255 86.9767 32.8455 86.87 32.4722 86.87C32.0989 86.87 31.8155 86.9767 31.6222 87.19C31.4355 87.4033 31.3089 87.68 31.2422 88.02C31.1822 88.3533 31.1522 88.7667 31.1522 89.26C31.1522 89.7667 31.1822 90.1933 31.2422 90.54C31.3022 90.88 31.4289 91.1567 31.6222 91.37C31.8155 91.5767 32.0989 91.68 32.4722 91.68C32.8455 91.68 33.1289 91.5767 33.3222 91.37C33.5155 91.1567 33.6422 90.88 33.7022 90.54C33.7622 90.1933 33.7922 89.7667 33.7922 89.26Z" fill="#D9D9D9"/>
    <path d="M0.53 191.26C0.53 190.107 0.736667 189.203 1.15 188.55C1.57 187.897 2.26333 187.57 3.23 187.57C4.19667 187.57 4.88667 187.897 5.3 188.55C5.72 189.203 5.93 190.107 5.93 191.26C5.93 192.42 5.72 193.33 5.3 193.99C4.88667 194.65 4.19667 194.98 3.23 194.98C2.26333 194.98 1.57 194.65 1.15 193.99C0.736667 193.33 0.53 192.42 0.53 191.26ZM4.55 191.26C4.55 190.767 4.51667 190.353 4.45 190.02C4.39 189.68 4.26333 189.403 4.07 189.19C3.88333 188.977 3.60333 188.87 3.23 188.87C2.85667 188.87 2.57333 188.977 2.38 189.19C2.19333 189.403 2.06667 189.68 2 190.02C1.94 190.353 1.91 190.767 1.91 191.26C1.91 191.767 1.94 192.193 2 192.54C2.06 192.88 2.18667 193.157 2.38 193.37C2.57333 193.577 2.85667 193.68 3.23 193.68C3.60333 193.68 3.88667 193.577 4.08 193.37C4.27333 193.157 4.4 192.88 4.46 192.54C4.52 192.193 4.55 191.767 4.55 191.26Z" fill="#D9D9D9"/>
    <defs>
        <clipPath id="clip0_0_1">
            <rect width="352" height="176" fill="white" transform="translate(18 21)"/>
        </clipPath>
    </defs>
</svg>
